<mxfile host="app.diagrams.net" modified="2022-05-12T02:51:01.172Z" agent="5.0 (Windows NT 10.0; Win64; x64) AppleWebKit/537.36 (KHTML, like Gecko) Chrome/101.0.4951.64 Safari/537.36" etag="ltkZafRwL-L8eys0ii1m" version="18.0.1" type="github">
  <diagram id="yl_ybbSMiaMFGGJV0O8V" name="Page-1">
    <mxGraphModel dx="2347" dy="1896" grid="1" gridSize="10" guides="1" tooltips="1" connect="1" arrows="1" fold="1" page="1" pageScale="1" pageWidth="827" pageHeight="1169" math="0" shadow="0">
      <root>
        <mxCell id="0" />
        <mxCell id="1" parent="0" />
        <mxCell id="T_srFDjAMhjE24v10Dam-1" value="spu月度门店标签" style="swimlane;fontStyle=0;childLayout=stackLayout;horizontal=1;startSize=26;horizontalStack=0;resizeParent=1;resizeParentMax=0;resizeLast=0;collapsible=1;marginBottom=0;align=center;fontSize=14;" vertex="1" parent="1">
          <mxGeometry x="150" y="-10" width="300" height="2186" as="geometry" />
        </mxCell>
        <mxCell id="T_srFDjAMhjE24v10Dam-2" value="+dim_date_id  月份" style="text;strokeColor=none;fillColor=none;spacingLeft=4;spacingRight=4;overflow=hidden;rotatable=0;points=[[0,0.5],[1,0.5]];portConstraint=eastwest;fontSize=12;" vertex="1" parent="T_srFDjAMhjE24v10Dam-1">
          <mxGeometry y="26" width="300" height="30" as="geometry" />
        </mxCell>
        <mxCell id="T_srFDjAMhjE24v10Dam-3" value="+cntct_cust_num  上级合同客户编码" style="text;strokeColor=#d79b00;fillColor=#ffe6cc;spacingLeft=4;spacingRight=4;overflow=hidden;rotatable=0;points=[[0,0.5],[1,0.5]];portConstraint=eastwest;fontSize=12;" vertex="1" parent="T_srFDjAMhjE24v10Dam-1">
          <mxGeometry y="56" width="300" height="30" as="geometry" />
        </mxCell>
        <mxCell id="T_srFDjAMhjE24v10Dam-10" value="+cntct_cust_name  上级合同客户名称" style="text;strokeColor=#d79b00;fillColor=#ffe6cc;spacingLeft=4;spacingRight=4;overflow=hidden;rotatable=0;points=[[0,0.5],[1,0.5]];portConstraint=eastwest;fontSize=12;" vertex="1" parent="T_srFDjAMhjE24v10Dam-1">
          <mxGeometry y="86" width="300" height="30" as="geometry" />
        </mxCell>
        <mxCell id="T_srFDjAMhjE24v10Dam-4" value="+dealer_chanl_ccn  上级合同客户服务渠道代码" style="text;strokeColor=#666666;fillColor=#f5f5f5;spacingLeft=4;spacingRight=4;overflow=hidden;rotatable=0;points=[[0,0.5],[1,0.5]];portConstraint=eastwest;fontSize=12;fontColor=#333333;" vertex="1" parent="T_srFDjAMhjE24v10Dam-1">
          <mxGeometry y="116" width="300" height="30" as="geometry" />
        </mxCell>
        <mxCell id="T_srFDjAMhjE24v10Dam-9" value="+dealer_chanl_name_ccn  上级合同客户服务渠道" style="text;strokeColor=#d79b00;fillColor=#ffe6cc;spacingLeft=4;spacingRight=4;overflow=hidden;rotatable=0;points=[[0,0.5],[1,0.5]];portConstraint=eastwest;fontSize=12;" vertex="1" parent="T_srFDjAMhjE24v10Dam-1">
          <mxGeometry y="146" width="300" height="30" as="geometry" />
        </mxCell>
        <mxCell id="T_srFDjAMhjE24v10Dam-8" value="+prov_cd_ccn  上级合同客户所在省编码" style="text;strokeColor=#666666;fillColor=#f5f5f5;spacingLeft=4;spacingRight=4;overflow=hidden;rotatable=0;points=[[0,0.5],[1,0.5]];portConstraint=eastwest;fontSize=12;fontColor=#333333;" vertex="1" parent="T_srFDjAMhjE24v10Dam-1">
          <mxGeometry y="176" width="300" height="30" as="geometry" />
        </mxCell>
        <mxCell id="T_srFDjAMhjE24v10Dam-7" value="+prov_name_ccn  上级合同客户所在省名称" style="text;strokeColor=#d79b00;fillColor=#ffe6cc;spacingLeft=4;spacingRight=4;overflow=hidden;rotatable=0;points=[[0,0.5],[1,0.5]];portConstraint=eastwest;fontSize=12;" vertex="1" parent="T_srFDjAMhjE24v10Dam-1">
          <mxGeometry y="206" width="300" height="30" as="geometry" />
        </mxCell>
        <mxCell id="T_srFDjAMhjE24v10Dam-6" value="+city_cd_ccn  上级合同客户所在城市编码" style="text;strokeColor=#666666;fillColor=#f5f5f5;spacingLeft=4;spacingRight=4;overflow=hidden;rotatable=0;points=[[0,0.5],[1,0.5]];portConstraint=eastwest;fontSize=12;fontColor=#333333;" vertex="1" parent="T_srFDjAMhjE24v10Dam-1">
          <mxGeometry y="236" width="300" height="30" as="geometry" />
        </mxCell>
        <mxCell id="T_srFDjAMhjE24v10Dam-5" value="+city_name_ccn  上级合同客户所在城市名称" style="text;strokeColor=#d79b00;fillColor=#ffe6cc;spacingLeft=4;spacingRight=4;overflow=hidden;rotatable=0;points=[[0,0.5],[1,0.5]];portConstraint=eastwest;fontSize=12;" vertex="1" parent="T_srFDjAMhjE24v10Dam-1">
          <mxGeometry y="266" width="300" height="30" as="geometry" />
        </mxCell>
        <mxCell id="T_srFDjAMhjE24v10Dam-16" value="+county_cd_ccn  上级合同客户所在区县编码" style="text;strokeColor=#666666;fillColor=#f5f5f5;spacingLeft=4;spacingRight=4;overflow=hidden;rotatable=0;points=[[0,0.5],[1,0.5]];portConstraint=eastwest;fontSize=12;fontColor=#333333;" vertex="1" parent="T_srFDjAMhjE24v10Dam-1">
          <mxGeometry y="296" width="300" height="30" as="geometry" />
        </mxCell>
        <mxCell id="T_srFDjAMhjE24v10Dam-23" value="+county_name_ccn  上级合同客户所在区县名称" style="text;strokeColor=#d79b00;fillColor=#ffe6cc;spacingLeft=4;spacingRight=4;overflow=hidden;rotatable=0;points=[[0,0.5],[1,0.5]];portConstraint=eastwest;fontSize=12;" vertex="1" parent="T_srFDjAMhjE24v10Dam-1">
          <mxGeometry y="326" width="300" height="30" as="geometry" />
        </mxCell>
        <mxCell id="T_srFDjAMhjE24v10Dam-22" value="+sales_bu_level3_ccn  上级合同客户的销售大区编码" style="text;strokeColor=#666666;fillColor=#f5f5f5;spacingLeft=4;spacingRight=4;overflow=hidden;rotatable=0;points=[[0,0.5],[1,0.5]];portConstraint=eastwest;fontSize=12;fontColor=#333333;" vertex="1" parent="T_srFDjAMhjE24v10Dam-1">
          <mxGeometry y="356" width="300" height="30" as="geometry" />
        </mxCell>
        <mxCell id="T_srFDjAMhjE24v10Dam-21" value="+sales_bu_level3_name_ccn  上级合同客户的销售大区" style="text;strokeColor=#d79b00;fillColor=#ffe6cc;spacingLeft=4;spacingRight=4;overflow=hidden;rotatable=0;points=[[0,0.5],[1,0.5]];portConstraint=eastwest;fontSize=12;" vertex="1" parent="T_srFDjAMhjE24v10Dam-1">
          <mxGeometry y="386" width="300" height="30" as="geometry" />
        </mxCell>
        <mxCell id="T_srFDjAMhjE24v10Dam-20" value="+sales_bu_st_ccn  上级合同客户的授权组织编码" style="text;strokeColor=#d79b00;fillColor=#ffe6cc;spacingLeft=4;spacingRight=4;overflow=hidden;rotatable=0;points=[[0,0.5],[1,0.5]];portConstraint=eastwest;fontSize=12;" vertex="1" parent="T_srFDjAMhjE24v10Dam-1">
          <mxGeometry y="416" width="300" height="30" as="geometry" />
        </mxCell>
        <mxCell id="T_srFDjAMhjE24v10Dam-19" value="+sales_bu_st_name_ccn  上级合同客户的授权组织" style="text;strokeColor=#d79b00;fillColor=#ffe6cc;spacingLeft=4;spacingRight=4;overflow=hidden;rotatable=0;points=[[0,0.5],[1,0.5]];portConstraint=eastwest;fontSize=12;" vertex="1" parent="T_srFDjAMhjE24v10Dam-1">
          <mxGeometry y="446" width="300" height="30" as="geometry" />
        </mxCell>
        <mxCell id="T_srFDjAMhjE24v10Dam-18" value="+prov_cd  省代码" style="text;strokeColor=#6c8ebf;fillColor=#dae8fc;spacingLeft=4;spacingRight=4;overflow=hidden;rotatable=0;points=[[0,0.5],[1,0.5]];portConstraint=eastwest;fontSize=12;" vertex="1" parent="T_srFDjAMhjE24v10Dam-1">
          <mxGeometry y="476" width="300" height="30" as="geometry" />
        </mxCell>
        <mxCell id="T_srFDjAMhjE24v10Dam-17" value="+prov_name  省名称" style="text;strokeColor=#6c8ebf;fillColor=#dae8fc;spacingLeft=4;spacingRight=4;overflow=hidden;rotatable=0;points=[[0,0.5],[1,0.5]];portConstraint=eastwest;fontSize=12;" vertex="1" parent="T_srFDjAMhjE24v10Dam-1">
          <mxGeometry y="506" width="300" height="30" as="geometry" />
        </mxCell>
        <mxCell id="T_srFDjAMhjE24v10Dam-14" value="+city_cd  市代码" style="text;strokeColor=#6c8ebf;fillColor=#dae8fc;spacingLeft=4;spacingRight=4;overflow=hidden;rotatable=0;points=[[0,0.5],[1,0.5]];portConstraint=eastwest;fontSize=12;" vertex="1" parent="T_srFDjAMhjE24v10Dam-1">
          <mxGeometry y="536" width="300" height="30" as="geometry" />
        </mxCell>
        <mxCell id="T_srFDjAMhjE24v10Dam-15" value="+city_name  市名称" style="text;strokeColor=#6c8ebf;fillColor=#dae8fc;spacingLeft=4;spacingRight=4;overflow=hidden;rotatable=0;points=[[0,0.5],[1,0.5]];portConstraint=eastwest;fontSize=12;" vertex="1" parent="T_srFDjAMhjE24v10Dam-1">
          <mxGeometry y="566" width="300" height="30" as="geometry" />
        </mxCell>
        <mxCell id="T_srFDjAMhjE24v10Dam-13" value="+county_cd  区县代码" style="text;strokeColor=#6c8ebf;fillColor=#dae8fc;spacingLeft=4;spacingRight=4;overflow=hidden;rotatable=0;points=[[0,0.5],[1,0.5]];portConstraint=eastwest;fontSize=12;" vertex="1" parent="T_srFDjAMhjE24v10Dam-1">
          <mxGeometry y="596" width="300" height="30" as="geometry" />
        </mxCell>
        <mxCell id="T_srFDjAMhjE24v10Dam-12" value="+unified_cust_num  门店编号" style="text;strokeColor=#b85450;fillColor=#f8cecc;spacingLeft=4;spacingRight=4;overflow=hidden;rotatable=0;points=[[0,0.5],[1,0.5]];portConstraint=eastwest;fontSize=12;" vertex="1" parent="T_srFDjAMhjE24v10Dam-1">
          <mxGeometry y="626" width="300" height="30" as="geometry" />
        </mxCell>
        <mxCell id="T_srFDjAMhjE24v10Dam-31" value="+unified_cust_name  门店名称" style="text;strokeColor=#b85450;fillColor=#f8cecc;spacingLeft=4;spacingRight=4;overflow=hidden;rotatable=0;points=[[0,0.5],[1,0.5]];portConstraint=eastwest;fontSize=12;" vertex="1" parent="T_srFDjAMhjE24v10Dam-1">
          <mxGeometry y="656" width="300" height="30" as="geometry" />
        </mxCell>
        <mxCell id="T_srFDjAMhjE24v10Dam-34" value="+par_cust_num  父客户编号" style="text;strokeColor=#b85450;fillColor=#f8cecc;spacingLeft=4;spacingRight=4;overflow=hidden;rotatable=0;points=[[0,0.5],[1,0.5]];portConstraint=eastwest;fontSize=12;" vertex="1" parent="T_srFDjAMhjE24v10Dam-1">
          <mxGeometry y="686" width="300" height="30" as="geometry" />
        </mxCell>
        <mxCell id="T_srFDjAMhjE24v10Dam-33" value="+par_cust_name  父客户名称" style="text;strokeColor=none;fillColor=none;spacingLeft=4;spacingRight=4;overflow=hidden;rotatable=0;points=[[0,0.5],[1,0.5]];portConstraint=eastwest;fontSize=12;" vertex="1" parent="T_srFDjAMhjE24v10Dam-1">
          <mxGeometry y="716" width="300" height="30" as="geometry" />
        </mxCell>
        <mxCell id="T_srFDjAMhjE24v10Dam-32" value="+cust_categ_l3  客户三级分类编码" style="text;strokeColor=#b85450;fillColor=#f8cecc;spacingLeft=4;spacingRight=4;overflow=hidden;rotatable=0;points=[[0,0.5],[1,0.5]];portConstraint=eastwest;fontSize=12;" vertex="1" parent="T_srFDjAMhjE24v10Dam-1">
          <mxGeometry y="746" width="300" height="30" as="geometry" />
        </mxCell>
        <mxCell id="T_srFDjAMhjE24v10Dam-29" value="+cust_categ_l3_name  客户三级分类名称" style="text;strokeColor=#b85450;fillColor=#f8cecc;spacingLeft=4;spacingRight=4;overflow=hidden;rotatable=0;points=[[0,0.5],[1,0.5]];portConstraint=eastwest;fontSize=12;" vertex="1" parent="T_srFDjAMhjE24v10Dam-1">
          <mxGeometry y="776" width="300" height="30" as="geometry" />
        </mxCell>
        <mxCell id="T_srFDjAMhjE24v10Dam-30" value="+trmnl_chanl  终端渠道代码" style="text;strokeColor=#b85450;fillColor=#f8cecc;spacingLeft=4;spacingRight=4;overflow=hidden;rotatable=0;points=[[0,0.5],[1,0.5]];portConstraint=eastwest;fontSize=12;" vertex="1" parent="T_srFDjAMhjE24v10Dam-1">
          <mxGeometry y="806" width="300" height="30" as="geometry" />
        </mxCell>
        <mxCell id="T_srFDjAMhjE24v10Dam-28" value="+trmnl_chanl_name  终端渠道名称" style="text;strokeColor=#b85450;fillColor=#f8cecc;spacingLeft=4;spacingRight=4;overflow=hidden;rotatable=0;points=[[0,0.5],[1,0.5]];portConstraint=eastwest;fontSize=12;" vertex="1" parent="T_srFDjAMhjE24v10Dam-1">
          <mxGeometry y="836" width="300" height="30" as="geometry" />
        </mxCell>
        <mxCell id="T_srFDjAMhjE24v10Dam-27" value="+gourm_flg  是否有美顾" style="text;strokeColor=#b85450;fillColor=#f8cecc;spacingLeft=4;spacingRight=4;overflow=hidden;rotatable=0;points=[[0,0.5],[1,0.5]];portConstraint=eastwest;fontSize=12;" vertex="1" parent="T_srFDjAMhjE24v10Dam-1">
          <mxGeometry y="866" width="300" height="30" as="geometry" />
        </mxCell>
        <mxCell id="T_srFDjAMhjE24v10Dam-42" value="+dirct_sales_flg  是否直营" style="text;strokeColor=#b85450;fillColor=#f8cecc;spacingLeft=4;spacingRight=4;overflow=hidden;rotatable=0;points=[[0,0.5],[1,0.5]];portConstraint=eastwest;fontSize=12;" vertex="1" parent="T_srFDjAMhjE24v10Dam-1">
          <mxGeometry y="896" width="300" height="30" as="geometry" />
        </mxCell>
        <mxCell id="T_srFDjAMhjE24v10Dam-51" value="+sale_grd  销量等级编码" style="text;spacingLeft=4;spacingRight=4;overflow=hidden;rotatable=0;points=[[0,0.5],[1,0.5]];portConstraint=eastwest;fontSize=12;" vertex="1" parent="T_srFDjAMhjE24v10Dam-1">
          <mxGeometry y="926" width="300" height="30" as="geometry" />
        </mxCell>
        <mxCell id="T_srFDjAMhjE24v10Dam-50" value="+sale_grd_name  销量等级名称" style="text;strokeColor=#b85450;fillColor=#f8cecc;spacingLeft=4;spacingRight=4;overflow=hidden;rotatable=0;points=[[0,0.5],[1,0.5]];portConstraint=eastwest;fontSize=12;" vertex="1" parent="T_srFDjAMhjE24v10Dam-1">
          <mxGeometry y="956" width="300" height="30" as="geometry" />
        </mxCell>
        <mxCell id="T_srFDjAMhjE24v10Dam-49" value="+brand_cd  品牌代码" style="text;strokeColor=#9673a6;fillColor=#e1d5e7;spacingLeft=4;spacingRight=4;overflow=hidden;rotatable=0;points=[[0,0.5],[1,0.5]];portConstraint=eastwest;fontSize=12;" vertex="1" parent="T_srFDjAMhjE24v10Dam-1">
          <mxGeometry y="986" width="300" height="30" as="geometry" />
        </mxCell>
        <mxCell id="T_srFDjAMhjE24v10Dam-48" value="+brand_name  品牌名称" style="text;strokeColor=#9673a6;fillColor=#e1d5e7;spacingLeft=4;spacingRight=4;overflow=hidden;rotatable=0;points=[[0,0.5],[1,0.5]];portConstraint=eastwest;fontSize=12;" vertex="1" parent="T_srFDjAMhjE24v10Dam-1">
          <mxGeometry y="1016" width="300" height="30" as="geometry" />
        </mxCell>
        <mxCell id="T_srFDjAMhjE24v10Dam-46" value="+prdcateg_lv2_cd  大品类代码" style="text;strokeColor=#9673a6;fillColor=#e1d5e7;spacingLeft=4;spacingRight=4;overflow=hidden;rotatable=0;points=[[0,0.5],[1,0.5]];portConstraint=eastwest;fontSize=12;" vertex="1" parent="T_srFDjAMhjE24v10Dam-1">
          <mxGeometry y="1046" width="300" height="30" as="geometry" />
        </mxCell>
        <mxCell id="T_srFDjAMhjE24v10Dam-47" value="+prdcateg_lv2_name  大品类名称" style="text;strokeColor=#9673a6;fillColor=#e1d5e7;spacingLeft=4;spacingRight=4;overflow=hidden;rotatable=0;points=[[0,0.5],[1,0.5]];portConstraint=eastwest;fontSize=12;" vertex="1" parent="T_srFDjAMhjE24v10Dam-1">
          <mxGeometry y="1076" width="300" height="30" as="geometry" />
        </mxCell>
        <mxCell id="T_srFDjAMhjE24v10Dam-45" value="+prdcateg_lv3_cd  品类代码" style="text;strokeColor=#9673a6;fillColor=#e1d5e7;spacingLeft=4;spacingRight=4;overflow=hidden;rotatable=0;points=[[0,0.5],[1,0.5]];portConstraint=eastwest;fontSize=12;" vertex="1" parent="T_srFDjAMhjE24v10Dam-1">
          <mxGeometry y="1106" width="300" height="30" as="geometry" />
        </mxCell>
        <mxCell id="T_srFDjAMhjE24v10Dam-44" value="+prdcateg_lv3_name  品类名称" style="text;strokeColor=#9673a6;fillColor=#e1d5e7;spacingLeft=4;spacingRight=4;overflow=hidden;rotatable=0;points=[[0,0.5],[1,0.5]];portConstraint=eastwest;fontSize=12;" vertex="1" parent="T_srFDjAMhjE24v10Dam-1">
          <mxGeometry y="1136" width="300" height="30" as="geometry" />
        </mxCell>
        <mxCell id="T_srFDjAMhjE24v10Dam-43" value="+prdcateg_lv4_cd  SPU代码" style="text;strokeColor=#9673a6;fillColor=#e1d5e7;spacingLeft=4;spacingRight=4;overflow=hidden;rotatable=0;points=[[0,0.5],[1,0.5]];portConstraint=eastwest;fontSize=12;" vertex="1" parent="T_srFDjAMhjE24v10Dam-1">
          <mxGeometry y="1166" width="300" height="30" as="geometry" />
        </mxCell>
        <mxCell id="T_srFDjAMhjE24v10Dam-36" value="+prdcateg_lv4_name  SPU名称" style="text;strokeColor=#9673a6;fillColor=#e1d5e7;spacingLeft=4;spacingRight=4;overflow=hidden;rotatable=0;points=[[0,0.5],[1,0.5]];portConstraint=eastwest;fontSize=12;" vertex="1" parent="T_srFDjAMhjE24v10Dam-1">
          <mxGeometry y="1196" width="300" height="30" as="geometry" />
        </mxCell>
        <mxCell id="T_srFDjAMhjE24v10Dam-41" value="+soy_capacity  酱油容量" style="text;strokeColor=none;fillColor=none;spacingLeft=4;spacingRight=4;overflow=hidden;rotatable=0;points=[[0,0.5],[1,0.5]];portConstraint=eastwest;fontSize=12;" vertex="1" parent="T_srFDjAMhjE24v10Dam-1">
          <mxGeometry y="1226" width="300" height="30" as="geometry" />
        </mxCell>
        <mxCell id="T_srFDjAMhjE24v10Dam-40" value="+soy_capacity_rank_n  酱油容量全国排名" style="text;strokeColor=none;fillColor=none;spacingLeft=4;spacingRight=4;overflow=hidden;rotatable=0;points=[[0,0.5],[1,0.5]];portConstraint=eastwest;fontSize=12;" vertex="1" parent="T_srFDjAMhjE24v10Dam-1">
          <mxGeometry y="1256" width="300" height="30" as="geometry" />
        </mxCell>
        <mxCell id="T_srFDjAMhjE24v10Dam-39" value="+soy_capacity_rank_p  酱油容量省排名" style="text;strokeColor=none;fillColor=none;spacingLeft=4;spacingRight=4;overflow=hidden;rotatable=0;points=[[0,0.5],[1,0.5]];portConstraint=eastwest;fontSize=12;" vertex="1" parent="T_srFDjAMhjE24v10Dam-1">
          <mxGeometry y="1286" width="300" height="30" as="geometry" />
        </mxCell>
        <mxCell id="T_srFDjAMhjE24v10Dam-38" value="+soy_capacity_rank_c  酱油容量城市排名" style="text;strokeColor=none;fillColor=none;spacingLeft=4;spacingRight=4;overflow=hidden;rotatable=0;points=[[0,0.5],[1,0.5]];portConstraint=eastwest;fontSize=12;" vertex="1" parent="T_srFDjAMhjE24v10Dam-1">
          <mxGeometry y="1316" width="300" height="30" as="geometry" />
        </mxCell>
        <mxCell id="T_srFDjAMhjE24v10Dam-37" value="+soy_capacity_rank_ch  酱油容量渠道排名" style="text;strokeColor=none;fillColor=none;spacingLeft=4;spacingRight=4;overflow=hidden;rotatable=0;points=[[0,0.5],[1,0.5]];portConstraint=eastwest;fontSize=12;" vertex="1" parent="T_srFDjAMhjE24v10Dam-1">
          <mxGeometry y="1346" width="300" height="30" as="geometry" />
        </mxCell>
        <mxCell id="T_srFDjAMhjE24v10Dam-54" value="+soy_capacity_rank_s  酱油容量系统排名" style="text;strokeColor=none;fillColor=none;spacingLeft=4;spacingRight=4;overflow=hidden;rotatable=0;points=[[0,0.5],[1,0.5]];portConstraint=eastwest;fontSize=12;" vertex="1" parent="T_srFDjAMhjE24v10Dam-1">
          <mxGeometry y="1376" width="300" height="30" as="geometry" />
        </mxCell>
        <mxCell id="T_srFDjAMhjE24v10Dam-62" value="+ipo10_sales_qty_ly  去年门店IPO10销量（瓶L或瓶KG）" style="text;strokeColor=none;fillColor=none;spacingLeft=4;spacingRight=4;overflow=hidden;rotatable=0;points=[[0,0.5],[1,0.5]];portConstraint=eastwest;fontSize=12;" vertex="1" parent="T_srFDjAMhjE24v10Dam-1">
          <mxGeometry y="1406" width="300" height="30" as="geometry" />
        </mxCell>
        <mxCell id="T_srFDjAMhjE24v10Dam-78" value="+goal_incre_amt  当年业绩增量" style="text;strokeColor=none;fillColor=none;spacingLeft=4;spacingRight=4;overflow=hidden;rotatable=0;points=[[0,0.5],[1,0.5]];portConstraint=eastwest;fontSize=12;" vertex="1" parent="T_srFDjAMhjE24v10Dam-1">
          <mxGeometry y="1436" width="300" height="30" as="geometry" />
        </mxCell>
        <mxCell id="T_srFDjAMhjE24v10Dam-79" value="+goal_incre_rate  业绩增长率" style="text;strokeColor=none;fillColor=none;spacingLeft=4;spacingRight=4;overflow=hidden;rotatable=0;points=[[0,0.5],[1,0.5]];portConstraint=eastwest;fontSize=12;" vertex="1" parent="T_srFDjAMhjE24v10Dam-1">
          <mxGeometry y="1466" width="300" height="30" as="geometry" />
        </mxCell>
        <mxCell id="T_srFDjAMhjE24v10Dam-81" value="+is_sales  SPU门店是否有基本量" style="text;strokeColor=none;fillColor=none;spacingLeft=4;spacingRight=4;overflow=hidden;rotatable=0;points=[[0,0.5],[1,0.5]];portConstraint=eastwest;fontSize=12;" vertex="1" parent="T_srFDjAMhjE24v10Dam-1">
          <mxGeometry y="1496" width="300" height="30" as="geometry" />
        </mxCell>
        <mxCell id="T_srFDjAMhjE24v10Dam-80" value="+have_goal  是否有目标" style="text;strokeColor=none;fillColor=none;spacingLeft=4;spacingRight=4;overflow=hidden;rotatable=0;points=[[0,0.5],[1,0.5]];portConstraint=eastwest;fontSize=12;" vertex="1" parent="T_srFDjAMhjE24v10Dam-1">
          <mxGeometry y="1526" width="300" height="30" as="geometry" />
        </mxCell>
        <mxCell id="T_srFDjAMhjE24v10Dam-71" value="+is_incre  是否增长" style="text;strokeColor=none;fillColor=none;spacingLeft=4;spacingRight=4;overflow=hidden;rotatable=0;points=[[0,0.5],[1,0.5]];portConstraint=eastwest;fontSize=12;" vertex="1" parent="T_srFDjAMhjE24v10Dam-1">
          <mxGeometry y="1556" width="300" height="30" as="geometry" />
        </mxCell>
        <mxCell id="T_srFDjAMhjE24v10Dam-73" value="+mtavg_sales  月均销量" style="text;strokeColor=none;fillColor=none;spacingLeft=4;spacingRight=4;overflow=hidden;rotatable=0;points=[[0,0.5],[1,0.5]];portConstraint=eastwest;fontSize=12;" vertex="1" parent="T_srFDjAMhjE24v10Dam-1">
          <mxGeometry y="1586" width="300" height="30" as="geometry" />
        </mxCell>
        <mxCell id="T_srFDjAMhjE24v10Dam-72" value="+mtavg_sales_rank_n  月均销量全国排名" style="text;strokeColor=none;fillColor=none;spacingLeft=4;spacingRight=4;overflow=hidden;rotatable=0;points=[[0,0.5],[1,0.5]];portConstraint=eastwest;fontSize=12;" vertex="1" parent="T_srFDjAMhjE24v10Dam-1">
          <mxGeometry y="1616" width="300" height="30" as="geometry" />
        </mxCell>
        <mxCell id="T_srFDjAMhjE24v10Dam-64" value="+mtavg_sales_rank_p  月均销量省排名" style="text;strokeColor=none;fillColor=none;spacingLeft=4;spacingRight=4;overflow=hidden;rotatable=0;points=[[0,0.5],[1,0.5]];portConstraint=eastwest;fontSize=12;" vertex="1" parent="T_srFDjAMhjE24v10Dam-1">
          <mxGeometry y="1646" width="300" height="30" as="geometry" />
        </mxCell>
        <mxCell id="T_srFDjAMhjE24v10Dam-63" value="+mtavg_sales_rank_c  月均销量城市排名" style="text;strokeColor=none;fillColor=none;spacingLeft=4;spacingRight=4;overflow=hidden;rotatable=0;points=[[0,0.5],[1,0.5]];portConstraint=eastwest;fontSize=12;" vertex="1" parent="T_srFDjAMhjE24v10Dam-1">
          <mxGeometry y="1676" width="300" height="30" as="geometry" />
        </mxCell>
        <mxCell id="T_srFDjAMhjE24v10Dam-58" value="+mtavg_sales_rank_d  月均销量区县排名" style="text;strokeColor=none;fillColor=none;spacingLeft=4;spacingRight=4;overflow=hidden;rotatable=0;points=[[0,0.5],[1,0.5]];portConstraint=eastwest;fontSize=12;" vertex="1" parent="T_srFDjAMhjE24v10Dam-1">
          <mxGeometry y="1706" width="300" height="30" as="geometry" />
        </mxCell>
        <mxCell id="T_srFDjAMhjE24v10Dam-35" value="+mtavg_sales_rank_ch  月均销量渠道排名" style="text;strokeColor=none;fillColor=none;spacingLeft=4;spacingRight=4;overflow=hidden;rotatable=0;points=[[0,0.5],[1,0.5]];portConstraint=eastwest;fontSize=12;" vertex="1" parent="T_srFDjAMhjE24v10Dam-1">
          <mxGeometry y="1736" width="300" height="30" as="geometry" />
        </mxCell>
        <mxCell id="T_srFDjAMhjE24v10Dam-90" value="+mtavg_sales_rank_s  月均销量系统排名" style="text;strokeColor=none;fillColor=none;spacingLeft=4;spacingRight=4;overflow=hidden;rotatable=0;points=[[0,0.5],[1,0.5]];portConstraint=eastwest;fontSize=12;" vertex="1" parent="T_srFDjAMhjE24v10Dam-1">
          <mxGeometry y="1766" width="300" height="30" as="geometry" />
        </mxCell>
        <mxCell id="T_srFDjAMhjE24v10Dam-94" value="+act_life_cy_4_ly  去年SPU省4阶段生命周期" style="text;strokeColor=none;fillColor=none;spacingLeft=4;spacingRight=4;overflow=hidden;rotatable=0;points=[[0,0.5],[1,0.5]];portConstraint=eastwest;fontSize=12;" vertex="1" parent="T_srFDjAMhjE24v10Dam-1">
          <mxGeometry y="1796" width="300" height="30" as="geometry" />
        </mxCell>
        <mxCell id="T_srFDjAMhjE24v10Dam-93" value="+act_life_cy_4_ly_c  去年SPU市4阶段生命周期" style="text;strokeColor=none;fillColor=none;spacingLeft=4;spacingRight=4;overflow=hidden;rotatable=0;points=[[0,0.5],[1,0.5]];portConstraint=eastwest;fontSize=12;" vertex="1" parent="T_srFDjAMhjE24v10Dam-1">
          <mxGeometry y="1826" width="300" height="30" as="geometry" />
        </mxCell>
        <mxCell id="T_srFDjAMhjE24v10Dam-92" value="+act_life_cy_4_ly_d  去年SPU区县4阶段生命周期" style="text;strokeColor=none;fillColor=none;spacingLeft=4;spacingRight=4;overflow=hidden;rotatable=0;points=[[0,0.5],[1,0.5]];portConstraint=eastwest;fontSize=12;" vertex="1" parent="T_srFDjAMhjE24v10Dam-1">
          <mxGeometry y="1856" width="300" height="30" as="geometry" />
        </mxCell>
        <mxCell id="T_srFDjAMhjE24v10Dam-91" value="+act_life_cy_16_ly_p  去年SPU省16阶段生命周期" style="text;strokeColor=none;fillColor=none;spacingLeft=4;spacingRight=4;overflow=hidden;rotatable=0;points=[[0,0.5],[1,0.5]];portConstraint=eastwest;fontSize=12;" vertex="1" parent="T_srFDjAMhjE24v10Dam-1">
          <mxGeometry y="1886" width="300" height="30" as="geometry" />
        </mxCell>
        <mxCell id="T_srFDjAMhjE24v10Dam-89" value="+act_life_cy_16_ly_c  去年SPU市16阶段生命周期" style="text;strokeColor=none;fillColor=none;spacingLeft=4;spacingRight=4;overflow=hidden;rotatable=0;points=[[0,0.5],[1,0.5]];portConstraint=eastwest;fontSize=12;" vertex="1" parent="T_srFDjAMhjE24v10Dam-1">
          <mxGeometry y="1916" width="300" height="30" as="geometry" />
        </mxCell>
        <mxCell id="T_srFDjAMhjE24v10Dam-88" value="+act_life_cy_16_ly_d  去年SPU区县16阶段生命周期" style="text;strokeColor=none;fillColor=none;spacingLeft=4;spacingRight=4;overflow=hidden;rotatable=0;points=[[0,0.5],[1,0.5]];portConstraint=eastwest;fontSize=12;" vertex="1" parent="T_srFDjAMhjE24v10Dam-1">
          <mxGeometry y="1946" width="300" height="30" as="geometry" />
        </mxCell>
        <mxCell id="T_srFDjAMhjE24v10Dam-87" value="+goal_life_cy_4_p  当年SPU省4阶段生命周期" style="text;strokeColor=none;fillColor=none;spacingLeft=4;spacingRight=4;overflow=hidden;rotatable=0;points=[[0,0.5],[1,0.5]];portConstraint=eastwest;fontSize=12;" vertex="1" parent="T_srFDjAMhjE24v10Dam-1">
          <mxGeometry y="1976" width="300" height="30" as="geometry" />
        </mxCell>
        <mxCell id="T_srFDjAMhjE24v10Dam-86" value="+goal_life_cy_4_c  当年SPU市4阶段生命周期" style="text;strokeColor=none;fillColor=none;spacingLeft=4;spacingRight=4;overflow=hidden;rotatable=0;points=[[0,0.5],[1,0.5]];portConstraint=eastwest;fontSize=12;" vertex="1" parent="T_srFDjAMhjE24v10Dam-1">
          <mxGeometry y="2006" width="300" height="30" as="geometry" />
        </mxCell>
        <mxCell id="T_srFDjAMhjE24v10Dam-85" value="+goal_life_cy_4_d  当年SPU区县4阶段生命周期" style="text;strokeColor=none;fillColor=none;spacingLeft=4;spacingRight=4;overflow=hidden;rotatable=0;points=[[0,0.5],[1,0.5]];portConstraint=eastwest;fontSize=12;" vertex="1" parent="T_srFDjAMhjE24v10Dam-1">
          <mxGeometry y="2036" width="300" height="30" as="geometry" />
        </mxCell>
        <mxCell id="T_srFDjAMhjE24v10Dam-84" value="+goal_life_cy_16_p  当年SPU省16阶段生命周期" style="text;strokeColor=none;fillColor=none;spacingLeft=4;spacingRight=4;overflow=hidden;rotatable=0;points=[[0,0.5],[1,0.5]];portConstraint=eastwest;fontSize=12;" vertex="1" parent="T_srFDjAMhjE24v10Dam-1">
          <mxGeometry y="2066" width="300" height="30" as="geometry" />
        </mxCell>
        <mxCell id="T_srFDjAMhjE24v10Dam-83" value="+goal_life_cy_16_c  当年SPU市16阶段生命周期" style="text;strokeColor=none;fillColor=none;spacingLeft=4;spacingRight=4;overflow=hidden;rotatable=0;points=[[0,0.5],[1,0.5]];portConstraint=eastwest;fontSize=12;" vertex="1" parent="T_srFDjAMhjE24v10Dam-1">
          <mxGeometry y="2096" width="300" height="30" as="geometry" />
        </mxCell>
        <mxCell id="T_srFDjAMhjE24v10Dam-96" value="+goal_life_cy_16_d  当年SPU区县16阶段生命周期" style="text;strokeColor=none;fillColor=none;spacingLeft=4;spacingRight=4;overflow=hidden;rotatable=0;points=[[0,0.5],[1,0.5]];portConstraint=eastwest;fontSize=12;" vertex="1" parent="T_srFDjAMhjE24v10Dam-1">
          <mxGeometry y="2126" width="300" height="30" as="geometry" />
        </mxCell>
        <mxCell id="T_srFDjAMhjE24v10Dam-95" value="+last_update_time  最后更新时间" style="text;strokeColor=none;fillColor=none;spacingLeft=4;spacingRight=4;overflow=hidden;rotatable=0;points=[[0,0.5],[1,0.5]];portConstraint=eastwest;fontSize=12;" vertex="1" parent="T_srFDjAMhjE24v10Dam-1">
          <mxGeometry y="2156" width="300" height="30" as="geometry" />
        </mxCell>
        <mxCell id="T_srFDjAMhjE24v10Dam-97" value="合同客户主数据" style="swimlane;fontStyle=0;childLayout=stackLayout;horizontal=1;startSize=26;horizontalStack=0;resizeParent=1;resizeParentMax=0;resizeLast=0;collapsible=1;marginBottom=0;align=center;fontSize=14;" vertex="1" parent="1">
          <mxGeometry x="740" y="20" width="350" height="656" as="geometry" />
        </mxCell>
        <mxCell id="T_srFDjAMhjE24v10Dam-98" value="+cust_num  客户编码" style="text;strokeColor=none;fillColor=none;spacingLeft=4;spacingRight=4;overflow=hidden;rotatable=0;points=[[0,0.5],[1,0.5]];portConstraint=eastwest;fontSize=12;" vertex="1" parent="T_srFDjAMhjE24v10Dam-97">
          <mxGeometry y="26" width="350" height="30" as="geometry" />
        </mxCell>
        <mxCell id="T_srFDjAMhjE24v10Dam-99" value="+cust_name  客户名称" style="text;strokeColor=none;fillColor=none;spacingLeft=4;spacingRight=4;overflow=hidden;rotatable=0;points=[[0,0.5],[1,0.5]];portConstraint=eastwest;fontSize=12;" vertex="1" parent="T_srFDjAMhjE24v10Dam-97">
          <mxGeometry y="56" width="350" height="30" as="geometry" />
        </mxCell>
        <mxCell id="T_srFDjAMhjE24v10Dam-102" value="+unified_cust_num  统一客户编码" style="text;strokeColor=none;fillColor=none;spacingLeft=4;spacingRight=4;overflow=hidden;rotatable=0;points=[[0,0.5],[1,0.5]];portConstraint=eastwest;fontSize=12;" vertex="1" parent="T_srFDjAMhjE24v10Dam-97">
          <mxGeometry y="86" width="350" height="30" as="geometry" />
        </mxCell>
        <mxCell id="T_srFDjAMhjE24v10Dam-112" value="+dealer_chanl  销售渠道" style="text;strokeColor=none;fillColor=none;spacingLeft=4;spacingRight=4;overflow=hidden;rotatable=0;points=[[0,0.5],[1,0.5]];portConstraint=eastwest;fontSize=12;" vertex="1" parent="T_srFDjAMhjE24v10Dam-97">
          <mxGeometry y="116" width="350" height="30" as="geometry" />
        </mxCell>
        <mxCell id="T_srFDjAMhjE24v10Dam-118" value="+sale_area_name  所属大区" style="text;strokeColor=none;fillColor=none;spacingLeft=4;spacingRight=4;overflow=hidden;rotatable=0;points=[[0,0.5],[1,0.5]];portConstraint=eastwest;fontSize=12;" vertex="1" parent="T_srFDjAMhjE24v10Dam-97">
          <mxGeometry y="146" width="350" height="30" as="geometry" />
        </mxCell>
        <mxCell id="T_srFDjAMhjE24v10Dam-122" value="+deliver_addr_line  送货地址" style="text;strokeColor=none;fillColor=none;spacingLeft=4;spacingRight=4;overflow=hidden;rotatable=0;points=[[0,0.5],[1,0.5]];portConstraint=eastwest;fontSize=12;" vertex="1" parent="T_srFDjAMhjE24v10Dam-97">
          <mxGeometry y="176" width="350" height="30" as="geometry" />
        </mxCell>
        <mxCell id="T_srFDjAMhjE24v10Dam-121" value="+created_date  创建日期" style="text;strokeColor=none;fillColor=none;spacingLeft=4;spacingRight=4;overflow=hidden;rotatable=0;points=[[0,0.5],[1,0.5]];portConstraint=eastwest;fontSize=12;" vertex="1" parent="T_srFDjAMhjE24v10Dam-97">
          <mxGeometry y="206" width="350" height="30" as="geometry" />
        </mxCell>
        <mxCell id="T_srFDjAMhjE24v10Dam-120" value="+cust_since_date  开始合作时间" style="text;strokeColor=none;fillColor=none;spacingLeft=4;spacingRight=4;overflow=hidden;rotatable=0;points=[[0,0.5],[1,0.5]];portConstraint=eastwest;fontSize=12;" vertex="1" parent="T_srFDjAMhjE24v10Dam-97">
          <mxGeometry y="236" width="350" height="30" as="geometry" />
        </mxCell>
        <mxCell id="T_srFDjAMhjE24v10Dam-119" value="+cust_stat_cd  客户状态" style="text;strokeColor=none;fillColor=none;spacingLeft=4;spacingRight=4;overflow=hidden;rotatable=0;points=[[0,0.5],[1,0.5]];portConstraint=eastwest;fontSize=12;" vertex="1" parent="T_srFDjAMhjE24v10Dam-97">
          <mxGeometry y="266" width="350" height="30" as="geometry" />
        </mxCell>
        <mxCell id="T_srFDjAMhjE24v10Dam-117" value="+employee_id  业代工号" style="text;strokeColor=none;fillColor=none;spacingLeft=4;spacingRight=4;overflow=hidden;rotatable=0;points=[[0,0.5],[1,0.5]];portConstraint=eastwest;fontSize=12;" vertex="1" parent="T_srFDjAMhjE24v10Dam-97">
          <mxGeometry y="296" width="350" height="30" as="geometry" />
        </mxCell>
        <mxCell id="T_srFDjAMhjE24v10Dam-116" value="+sales_bu_row_id  所属组织" style="text;strokeColor=none;fillColor=none;spacingLeft=4;spacingRight=4;overflow=hidden;rotatable=0;points=[[0,0.5],[1,0.5]];portConstraint=eastwest;fontSize=12;" vertex="1" parent="T_srFDjAMhjE24v10Dam-97">
          <mxGeometry y="326" width="350" height="30" as="geometry" />
        </mxCell>
        <mxCell id="T_srFDjAMhjE24v10Dam-115" value="+sales_bu_st_fullname  所属组织名称" style="text;strokeColor=none;fillColor=none;spacingLeft=4;spacingRight=4;overflow=hidden;rotatable=0;points=[[0,0.5],[1,0.5]];portConstraint=eastwest;fontSize=12;" vertex="1" parent="T_srFDjAMhjE24v10Dam-97">
          <mxGeometry y="356" width="350" height="30" as="geometry" />
        </mxCell>
        <mxCell id="T_srFDjAMhjE24v10Dam-114" value="+prov_name  省份名称" style="text;strokeColor=none;fillColor=none;spacingLeft=4;spacingRight=4;overflow=hidden;rotatable=0;points=[[0,0.5],[1,0.5]];portConstraint=eastwest;fontSize=12;" vertex="1" parent="T_srFDjAMhjE24v10Dam-97">
          <mxGeometry y="386" width="350" height="30" as="geometry" />
        </mxCell>
        <mxCell id="T_srFDjAMhjE24v10Dam-113" value="+city_name  城市名称" style="text;strokeColor=none;fillColor=none;spacingLeft=4;spacingRight=4;overflow=hidden;rotatable=0;points=[[0,0.5],[1,0.5]];portConstraint=eastwest;fontSize=12;" vertex="1" parent="T_srFDjAMhjE24v10Dam-97">
          <mxGeometry y="416" width="350" height="30" as="geometry" />
        </mxCell>
        <mxCell id="T_srFDjAMhjE24v10Dam-111" value="+county_name  区县名称" style="text;strokeColor=none;fillColor=none;spacingLeft=4;spacingRight=4;overflow=hidden;rotatable=0;points=[[0,0.5],[1,0.5]];portConstraint=eastwest;fontSize=12;" vertex="1" parent="T_srFDjAMhjE24v10Dam-97">
          <mxGeometry y="446" width="350" height="30" as="geometry" />
        </mxCell>
        <mxCell id="T_srFDjAMhjE24v10Dam-110" value="+office_addr_line  办公地址" style="text;strokeColor=none;fillColor=none;spacingLeft=4;spacingRight=4;overflow=hidden;rotatable=0;points=[[0,0.5],[1,0.5]];portConstraint=eastwest;fontSize=12;" vertex="1" parent="T_srFDjAMhjE24v10Dam-97">
          <mxGeometry y="476" width="350" height="30" as="geometry" />
        </mxCell>
        <mxCell id="T_srFDjAMhjE24v10Dam-109" value="+cust_categ_l1_name  客户类型" style="text;strokeColor=none;fillColor=none;spacingLeft=4;spacingRight=4;overflow=hidden;rotatable=0;points=[[0,0.5],[1,0.5]];portConstraint=eastwest;fontSize=12;" vertex="1" parent="T_srFDjAMhjE24v10Dam-97">
          <mxGeometry y="506" width="350" height="30" as="geometry" />
        </mxCell>
        <mxCell id="T_srFDjAMhjE24v10Dam-108" value="+cust_categ_l2_name  客户子类型" style="text;strokeColor=none;fillColor=none;spacingLeft=4;spacingRight=4;overflow=hidden;rotatable=0;points=[[0,0.5],[1,0.5]];portConstraint=eastwest;fontSize=12;" vertex="1" parent="T_srFDjAMhjE24v10Dam-97">
          <mxGeometry y="536" width="350" height="30" as="geometry" />
        </mxCell>
        <mxCell id="T_srFDjAMhjE24v10Dam-107" value="+cust_categ_l3_name  三级分类" style="text;strokeColor=none;fillColor=none;spacingLeft=4;spacingRight=4;overflow=hidden;rotatable=0;points=[[0,0.5],[1,0.5]];portConstraint=eastwest;fontSize=12;" vertex="1" parent="T_srFDjAMhjE24v10Dam-97">
          <mxGeometry y="566" width="350" height="30" as="geometry" />
        </mxCell>
        <mxCell id="T_srFDjAMhjE24v10Dam-106" value="+company_code  sap销售组织" style="text;strokeColor=none;fillColor=none;spacingLeft=4;spacingRight=4;overflow=hidden;rotatable=0;points=[[0,0.5],[1,0.5]];portConstraint=eastwest;fontSize=12;" vertex="1" parent="T_srFDjAMhjE24v10Dam-97">
          <mxGeometry y="596" width="350" height="30" as="geometry" />
        </mxCell>
        <mxCell id="T_srFDjAMhjE24v10Dam-105" value="+sap_transport_code  SAP运输代码" style="text;strokeColor=none;fillColor=none;spacingLeft=4;spacingRight=4;overflow=hidden;rotatable=0;points=[[0,0.5],[1,0.5]];portConstraint=eastwest;fontSize=12;" vertex="1" parent="T_srFDjAMhjE24v10Dam-97">
          <mxGeometry y="626" width="350" height="30" as="geometry" />
        </mxCell>
        <mxCell id="T_srFDjAMhjE24v10Dam-123" style="edgeStyle=orthogonalEdgeStyle;rounded=0;orthogonalLoop=1;jettySize=auto;html=1;exitX=1;exitY=0.5;exitDx=0;exitDy=0;entryX=0;entryY=0.5;entryDx=0;entryDy=0;" edge="1" parent="1" source="T_srFDjAMhjE24v10Dam-3" target="T_srFDjAMhjE24v10Dam-98">
          <mxGeometry relative="1" as="geometry" />
        </mxCell>
        <mxCell id="T_srFDjAMhjE24v10Dam-124" style="edgeStyle=orthogonalEdgeStyle;rounded=0;orthogonalLoop=1;jettySize=auto;html=1;exitX=1;exitY=0.5;exitDx=0;exitDy=0;entryX=0;entryY=0.5;entryDx=0;entryDy=0;" edge="1" parent="1" source="T_srFDjAMhjE24v10Dam-10" target="T_srFDjAMhjE24v10Dam-99">
          <mxGeometry relative="1" as="geometry" />
        </mxCell>
        <mxCell id="T_srFDjAMhjE24v10Dam-126" style="edgeStyle=orthogonalEdgeStyle;rounded=0;orthogonalLoop=1;jettySize=auto;html=1;exitX=1;exitY=0.5;exitDx=0;exitDy=0;entryX=0;entryY=0.5;entryDx=0;entryDy=0;" edge="1" parent="1" source="T_srFDjAMhjE24v10Dam-5" target="T_srFDjAMhjE24v10Dam-113">
          <mxGeometry relative="1" as="geometry" />
        </mxCell>
        <mxCell id="T_srFDjAMhjE24v10Dam-127" style="edgeStyle=orthogonalEdgeStyle;rounded=0;orthogonalLoop=1;jettySize=auto;html=1;exitX=1;exitY=0.5;exitDx=0;exitDy=0;entryX=0;entryY=0.5;entryDx=0;entryDy=0;" edge="1" parent="1" source="T_srFDjAMhjE24v10Dam-7" target="T_srFDjAMhjE24v10Dam-114">
          <mxGeometry relative="1" as="geometry">
            <Array as="points">
              <mxPoint x="640" y="211" />
              <mxPoint x="640" y="421" />
            </Array>
          </mxGeometry>
        </mxCell>
        <mxCell id="T_srFDjAMhjE24v10Dam-128" style="edgeStyle=orthogonalEdgeStyle;rounded=0;orthogonalLoop=1;jettySize=auto;html=1;exitX=1;exitY=0.5;exitDx=0;exitDy=0;entryX=0;entryY=0.5;entryDx=0;entryDy=0;" edge="1" parent="1" source="T_srFDjAMhjE24v10Dam-23" target="T_srFDjAMhjE24v10Dam-111">
          <mxGeometry relative="1" as="geometry">
            <Array as="points">
              <mxPoint x="560" y="331" />
              <mxPoint x="560" y="481" />
            </Array>
          </mxGeometry>
        </mxCell>
        <mxCell id="T_srFDjAMhjE24v10Dam-129" value="门店信息" style="swimlane;fontStyle=0;childLayout=stackLayout;horizontal=1;startSize=26;horizontalStack=0;resizeParent=1;resizeParentMax=0;resizeLast=0;collapsible=1;marginBottom=0;align=center;fontSize=14;fontColor=#1A1A1A;" vertex="1" parent="1">
          <mxGeometry x="-290" y="590" width="230" height="896" as="geometry" />
        </mxCell>
        <mxCell id="T_srFDjAMhjE24v10Dam-130" value="+cust_num  门店编码    " style="text;strokeColor=none;fillColor=none;spacingLeft=4;spacingRight=4;overflow=hidden;rotatable=0;points=[[0,0.5],[1,0.5]];portConstraint=eastwest;fontSize=12;fontColor=#1A1A1A;" vertex="1" parent="T_srFDjAMhjE24v10Dam-129">
          <mxGeometry y="26" width="230" height="30" as="geometry" />
        </mxCell>
        <mxCell id="T_srFDjAMhjE24v10Dam-131" value="+cust_name  门店名称" style="text;strokeColor=none;fillColor=none;spacingLeft=4;spacingRight=4;overflow=hidden;rotatable=0;points=[[0,0.5],[1,0.5]];portConstraint=eastwest;fontSize=12;fontColor=#1A1A1A;" vertex="1" parent="T_srFDjAMhjE24v10Dam-129">
          <mxGeometry y="56" width="230" height="30" as="geometry" />
        </mxCell>
        <mxCell id="T_srFDjAMhjE24v10Dam-132" value="+top_cust_num  父父客户编码" style="text;strokeColor=none;fillColor=none;spacingLeft=4;spacingRight=4;overflow=hidden;rotatable=0;points=[[0,0.5],[1,0.5]];portConstraint=eastwest;fontSize=12;fontColor=#1A1A1A;" vertex="1" parent="T_srFDjAMhjE24v10Dam-129">
          <mxGeometry y="86" width="230" height="30" as="geometry" />
        </mxCell>
        <mxCell id="T_srFDjAMhjE24v10Dam-136" value="+par_cust_num  父客户编码" style="text;strokeColor=none;fillColor=none;spacingLeft=4;spacingRight=4;overflow=hidden;rotatable=0;points=[[0,0.5],[1,0.5]];portConstraint=eastwest;fontSize=12;fontColor=#1A1A1A;" vertex="1" parent="T_srFDjAMhjE24v10Dam-129">
          <mxGeometry y="116" width="230" height="30" as="geometry" />
        </mxCell>
        <mxCell id="T_srFDjAMhjE24v10Dam-142" value="+cntct_cust_num  上级合同客户编码" style="text;strokeColor=none;fillColor=none;spacingLeft=4;spacingRight=4;overflow=hidden;rotatable=0;points=[[0,0.5],[1,0.5]];portConstraint=eastwest;fontSize=12;fontColor=#1A1A1A;" vertex="1" parent="T_srFDjAMhjE24v10Dam-129">
          <mxGeometry y="146" width="230" height="30" as="geometry" />
        </mxCell>
        <mxCell id="T_srFDjAMhjE24v10Dam-144" value="+lob_unified_dealer_num  经销商编码" style="text;strokeColor=none;fillColor=none;spacingLeft=4;spacingRight=4;overflow=hidden;rotatable=0;points=[[0,0.5],[1,0.5]];portConstraint=eastwest;fontSize=12;fontColor=#1A1A1A;" vertex="1" parent="T_srFDjAMhjE24v10Dam-129">
          <mxGeometry y="176" width="230" height="30" as="geometry" />
        </mxCell>
        <mxCell id="T_srFDjAMhjE24v10Dam-143" value="+trmnl_chanl  终端渠道编码" style="text;strokeColor=none;fillColor=none;spacingLeft=4;spacingRight=4;overflow=hidden;rotatable=0;points=[[0,0.5],[1,0.5]];portConstraint=eastwest;fontSize=12;fontColor=#1A1A1A;" vertex="1" parent="T_srFDjAMhjE24v10Dam-129">
          <mxGeometry y="206" width="230" height="30" as="geometry" />
        </mxCell>
        <mxCell id="T_srFDjAMhjE24v10Dam-141" value="+trmnl_chanl_name  终端渠道名称" style="text;strokeColor=none;fillColor=none;spacingLeft=4;spacingRight=4;overflow=hidden;rotatable=0;points=[[0,0.5],[1,0.5]];portConstraint=eastwest;fontSize=12;fontColor=#1A1A1A;" vertex="1" parent="T_srFDjAMhjE24v10Dam-129">
          <mxGeometry y="236" width="230" height="30" as="geometry" />
        </mxCell>
        <mxCell id="T_srFDjAMhjE24v10Dam-140" value="+cust_categ_l1  客户类型1编码" style="text;strokeColor=none;fillColor=none;spacingLeft=4;spacingRight=4;overflow=hidden;rotatable=0;points=[[0,0.5],[1,0.5]];portConstraint=eastwest;fontSize=12;fontColor=#1A1A1A;" vertex="1" parent="T_srFDjAMhjE24v10Dam-129">
          <mxGeometry y="266" width="230" height="30" as="geometry" />
        </mxCell>
        <mxCell id="T_srFDjAMhjE24v10Dam-139" value="+cust_categ_l1_name  客户类型1名称" style="text;strokeColor=none;fillColor=none;spacingLeft=4;spacingRight=4;overflow=hidden;rotatable=0;points=[[0,0.5],[1,0.5]];portConstraint=eastwest;fontSize=12;fontColor=#1A1A1A;" vertex="1" parent="T_srFDjAMhjE24v10Dam-129">
          <mxGeometry y="296" width="230" height="30" as="geometry" />
        </mxCell>
        <mxCell id="T_srFDjAMhjE24v10Dam-138" value="+cust_categ_l2  客户类型2编码" style="text;strokeColor=none;fillColor=none;spacingLeft=4;spacingRight=4;overflow=hidden;rotatable=0;points=[[0,0.5],[1,0.5]];portConstraint=eastwest;fontSize=12;fontColor=#1A1A1A;" vertex="1" parent="T_srFDjAMhjE24v10Dam-129">
          <mxGeometry y="326" width="230" height="30" as="geometry" />
        </mxCell>
        <mxCell id="T_srFDjAMhjE24v10Dam-137" value="+cust_categ_l2_name  客户类型2名称" style="text;strokeColor=none;fillColor=none;spacingLeft=4;spacingRight=4;overflow=hidden;rotatable=0;points=[[0,0.5],[1,0.5]];portConstraint=eastwest;fontSize=12;fontColor=#1A1A1A;" vertex="1" parent="T_srFDjAMhjE24v10Dam-129">
          <mxGeometry y="356" width="230" height="30" as="geometry" />
        </mxCell>
        <mxCell id="T_srFDjAMhjE24v10Dam-135" value="+cust_categ_l3  客户类型3编码" style="text;strokeColor=none;fillColor=none;spacingLeft=4;spacingRight=4;overflow=hidden;rotatable=0;points=[[0,0.5],[1,0.5]];portConstraint=eastwest;fontSize=12;fontColor=#1A1A1A;" vertex="1" parent="T_srFDjAMhjE24v10Dam-129">
          <mxGeometry y="386" width="230" height="30" as="geometry" />
        </mxCell>
        <mxCell id="T_srFDjAMhjE24v10Dam-133" value="+cust_categ_l3_name  客户类型3名称" style="text;strokeColor=none;fillColor=none;spacingLeft=4;spacingRight=4;overflow=hidden;rotatable=0;points=[[0,0.5],[1,0.5]];portConstraint=eastwest;fontSize=12;fontColor=#1A1A1A;" vertex="1" parent="T_srFDjAMhjE24v10Dam-129">
          <mxGeometry y="416" width="230" height="30" as="geometry" />
        </mxCell>
        <mxCell id="T_srFDjAMhjE24v10Dam-134" value="+sale_grd  销量等级" style="text;strokeColor=none;fillColor=none;spacingLeft=4;spacingRight=4;overflow=hidden;rotatable=0;points=[[0,0.5],[1,0.5]];portConstraint=eastwest;fontSize=12;fontColor=#1A1A1A;" vertex="1" parent="T_srFDjAMhjE24v10Dam-129">
          <mxGeometry y="446" width="230" height="30" as="geometry" />
        </mxCell>
        <mxCell id="T_srFDjAMhjE24v10Dam-150" value="+gourm_flg  是否有美顾" style="text;strokeColor=none;fillColor=none;spacingLeft=4;spacingRight=4;overflow=hidden;rotatable=0;points=[[0,0.5],[1,0.5]];portConstraint=eastwest;fontSize=12;fontColor=#1A1A1A;" vertex="1" parent="T_srFDjAMhjE24v10Dam-129">
          <mxGeometry y="476" width="230" height="30" as="geometry" />
        </mxCell>
        <mxCell id="T_srFDjAMhjE24v10Dam-151" value="+dirct_sales_flg  是否直营" style="text;strokeColor=none;fillColor=none;spacingLeft=4;spacingRight=4;overflow=hidden;rotatable=0;points=[[0,0.5],[1,0.5]];portConstraint=eastwest;fontSize=12;fontColor=#1A1A1A;" vertex="1" parent="T_srFDjAMhjE24v10Dam-129">
          <mxGeometry y="506" width="230" height="30" as="geometry" />
        </mxCell>
        <mxCell id="T_srFDjAMhjE24v10Dam-149" value="+mvc_flg  是否MVC" style="text;strokeColor=none;fillColor=none;spacingLeft=4;spacingRight=4;overflow=hidden;rotatable=0;points=[[0,0.5],[1,0.5]];portConstraint=eastwest;fontSize=12;fontColor=#1A1A1A;" vertex="1" parent="T_srFDjAMhjE24v10Dam-129">
          <mxGeometry y="536" width="230" height="30" as="geometry" />
        </mxCell>
        <mxCell id="T_srFDjAMhjE24v10Dam-148" value="+tallyman_flg  是否有理货员" style="text;strokeColor=none;fillColor=none;spacingLeft=4;spacingRight=4;overflow=hidden;rotatable=0;points=[[0,0.5],[1,0.5]];portConstraint=eastwest;fontSize=12;fontColor=#1A1A1A;" vertex="1" parent="T_srFDjAMhjE24v10Dam-129">
          <mxGeometry y="566" width="230" height="30" as="geometry" />
        </mxCell>
        <mxCell id="T_srFDjAMhjE24v10Dam-147" value="+cp_prmptr_flg  是否有CP推广员" style="text;strokeColor=none;fillColor=none;spacingLeft=4;spacingRight=4;overflow=hidden;rotatable=0;points=[[0,0.5],[1,0.5]];portConstraint=eastwest;fontSize=12;fontColor=#1A1A1A;" vertex="1" parent="T_srFDjAMhjE24v10Dam-129">
          <mxGeometry y="596" width="230" height="30" as="geometry" />
        </mxCell>
        <mxCell id="T_srFDjAMhjE24v10Dam-146" value="+sales_rep_id  业代工号" style="text;strokeColor=none;fillColor=none;spacingLeft=4;spacingRight=4;overflow=hidden;rotatable=0;points=[[0,0.5],[1,0.5]];portConstraint=eastwest;fontSize=12;fontColor=#1A1A1A;" vertex="1" parent="T_srFDjAMhjE24v10Dam-129">
          <mxGeometry y="626" width="230" height="30" as="geometry" />
        </mxCell>
        <mxCell id="T_srFDjAMhjE24v10Dam-157" value="+cust_since_date  开始合作时间" style="text;strokeColor=none;fillColor=none;spacingLeft=4;spacingRight=4;overflow=hidden;rotatable=0;points=[[0,0.5],[1,0.5]];portConstraint=eastwest;fontSize=12;fontColor=#1A1A1A;" vertex="1" parent="T_srFDjAMhjE24v10Dam-129">
          <mxGeometry y="656" width="230" height="30" as="geometry" />
        </mxCell>
        <mxCell id="T_srFDjAMhjE24v10Dam-161" value="+cust_stat_cd  客户状态" style="text;strokeColor=none;fillColor=none;spacingLeft=4;spacingRight=4;overflow=hidden;rotatable=0;points=[[0,0.5],[1,0.5]];portConstraint=eastwest;fontSize=12;fontColor=#1A1A1A;" vertex="1" parent="T_srFDjAMhjE24v10Dam-129">
          <mxGeometry y="686" width="230" height="30" as="geometry" />
        </mxCell>
        <mxCell id="T_srFDjAMhjE24v10Dam-160" value="+cust_close_date  客户关闭时间" style="text;strokeColor=none;fillColor=none;spacingLeft=4;spacingRight=4;overflow=hidden;rotatable=0;points=[[0,0.5],[1,0.5]];portConstraint=eastwest;fontSize=12;fontColor=#1A1A1A;" vertex="1" parent="T_srFDjAMhjE24v10Dam-129">
          <mxGeometry y="716" width="230" height="30" as="geometry" />
        </mxCell>
        <mxCell id="T_srFDjAMhjE24v10Dam-159" value="+sales_rep_name  业代名称" style="text;strokeColor=none;fillColor=none;spacingLeft=4;spacingRight=4;overflow=hidden;rotatable=0;points=[[0,0.5],[1,0.5]];portConstraint=eastwest;fontSize=12;fontColor=#1A1A1A;" vertex="1" parent="T_srFDjAMhjE24v10Dam-129">
          <mxGeometry y="746" width="230" height="30" as="geometry" />
        </mxCell>
        <mxCell id="T_srFDjAMhjE24v10Dam-158" value="+county_cd  地域编码" style="text;strokeColor=none;fillColor=none;spacingLeft=4;spacingRight=4;overflow=hidden;rotatable=0;points=[[0,0.5],[1,0.5]];portConstraint=eastwest;fontSize=12;fontColor=#1A1A1A;" vertex="1" parent="T_srFDjAMhjE24v10Dam-129">
          <mxGeometry y="776" width="230" height="30" as="geometry" />
        </mxCell>
        <mxCell id="T_srFDjAMhjE24v10Dam-156" value="+sales_bu_cd  组织编码" style="text;strokeColor=none;fillColor=none;spacingLeft=4;spacingRight=4;overflow=hidden;rotatable=0;points=[[0,0.5],[1,0.5]];portConstraint=eastwest;fontSize=12;fontColor=#1A1A1A;" vertex="1" parent="T_srFDjAMhjE24v10Dam-129">
          <mxGeometry y="806" width="230" height="30" as="geometry" />
        </mxCell>
        <mxCell id="T_srFDjAMhjE24v10Dam-155" value="+investment_type  投资类型（目前没有数据，待切换CRM系统后有）" style="text;strokeColor=none;fillColor=none;spacingLeft=4;spacingRight=4;overflow=hidden;rotatable=0;points=[[0,0.5],[1,0.5]];portConstraint=eastwest;fontSize=12;fontColor=#1A1A1A;" vertex="1" parent="T_srFDjAMhjE24v10Dam-129">
          <mxGeometry y="836" width="230" height="30" as="geometry" />
        </mxCell>
        <mxCell id="T_srFDjAMhjE24v10Dam-154" value="+store_address  门店详细地址" style="text;strokeColor=none;fillColor=none;spacingLeft=4;spacingRight=4;overflow=hidden;rotatable=0;points=[[0,0.5],[1,0.5]];portConstraint=eastwest;fontSize=12;fontColor=#1A1A1A;" vertex="1" parent="T_srFDjAMhjE24v10Dam-129">
          <mxGeometry y="866" width="230" height="30" as="geometry" />
        </mxCell>
        <mxCell id="T_srFDjAMhjE24v10Dam-163" style="edgeStyle=orthogonalEdgeStyle;rounded=0;orthogonalLoop=1;jettySize=auto;html=1;exitX=0;exitY=0.5;exitDx=0;exitDy=0;entryX=1;entryY=0.5;entryDx=0;entryDy=0;fontColor=#1A1A1A;" edge="1" parent="1" source="T_srFDjAMhjE24v10Dam-12" target="T_srFDjAMhjE24v10Dam-130">
          <mxGeometry relative="1" as="geometry" />
        </mxCell>
        <mxCell id="T_srFDjAMhjE24v10Dam-164" style="edgeStyle=orthogonalEdgeStyle;rounded=0;orthogonalLoop=1;jettySize=auto;html=1;exitX=0;exitY=0.5;exitDx=0;exitDy=0;entryX=1;entryY=0.5;entryDx=0;entryDy=0;fontColor=#1A1A1A;" edge="1" parent="1" source="T_srFDjAMhjE24v10Dam-31" target="T_srFDjAMhjE24v10Dam-131">
          <mxGeometry relative="1" as="geometry" />
        </mxCell>
        <mxCell id="T_srFDjAMhjE24v10Dam-165" style="edgeStyle=orthogonalEdgeStyle;rounded=0;orthogonalLoop=1;jettySize=auto;html=1;exitX=0;exitY=0.5;exitDx=0;exitDy=0;entryX=1;entryY=0.5;entryDx=0;entryDy=0;fontColor=#1A1A1A;" edge="1" parent="1" source="T_srFDjAMhjE24v10Dam-34" target="T_srFDjAMhjE24v10Dam-136">
          <mxGeometry relative="1" as="geometry" />
        </mxCell>
        <mxCell id="T_srFDjAMhjE24v10Dam-172" style="edgeStyle=orthogonalEdgeStyle;rounded=0;orthogonalLoop=1;jettySize=auto;html=1;exitX=0;exitY=0.5;exitDx=0;exitDy=0;entryX=1;entryY=0.5;entryDx=0;entryDy=0;fontColor=#1A1A1A;" edge="1" parent="1" source="T_srFDjAMhjE24v10Dam-32" target="T_srFDjAMhjE24v10Dam-135">
          <mxGeometry relative="1" as="geometry">
            <Array as="points">
              <mxPoint y="751" />
              <mxPoint y="991" />
            </Array>
          </mxGeometry>
        </mxCell>
        <mxCell id="T_srFDjAMhjE24v10Dam-173" style="edgeStyle=orthogonalEdgeStyle;rounded=0;orthogonalLoop=1;jettySize=auto;html=1;exitX=0;exitY=0.5;exitDx=0;exitDy=0;entryX=1;entryY=0.5;entryDx=0;entryDy=0;fontColor=#1A1A1A;" edge="1" parent="1" source="T_srFDjAMhjE24v10Dam-29" target="T_srFDjAMhjE24v10Dam-133">
          <mxGeometry relative="1" as="geometry">
            <Array as="points">
              <mxPoint x="30" y="781" />
              <mxPoint x="30" y="1021" />
            </Array>
          </mxGeometry>
        </mxCell>
        <mxCell id="T_srFDjAMhjE24v10Dam-174" style="edgeStyle=orthogonalEdgeStyle;rounded=0;orthogonalLoop=1;jettySize=auto;html=1;exitX=0;exitY=0.5;exitDx=0;exitDy=0;entryX=1;entryY=0.5;entryDx=0;entryDy=0;fontColor=#1A1A1A;" edge="1" parent="1" source="T_srFDjAMhjE24v10Dam-27" target="T_srFDjAMhjE24v10Dam-150">
          <mxGeometry relative="1" as="geometry">
            <Array as="points">
              <mxPoint x="60" y="871" />
              <mxPoint x="60" y="1081" />
            </Array>
          </mxGeometry>
        </mxCell>
        <mxCell id="T_srFDjAMhjE24v10Dam-176" style="edgeStyle=orthogonalEdgeStyle;rounded=0;orthogonalLoop=1;jettySize=auto;html=1;exitX=0;exitY=0.5;exitDx=0;exitDy=0;entryX=1.024;entryY=0.237;entryDx=0;entryDy=0;entryPerimeter=0;fontColor=#1A1A1A;" edge="1" parent="1" source="T_srFDjAMhjE24v10Dam-42" target="T_srFDjAMhjE24v10Dam-151">
          <mxGeometry relative="1" as="geometry">
            <Array as="points">
              <mxPoint x="90" y="901" />
              <mxPoint x="90" y="1103" />
            </Array>
          </mxGeometry>
        </mxCell>
        <mxCell id="T_srFDjAMhjE24v10Dam-178" style="edgeStyle=orthogonalEdgeStyle;rounded=0;orthogonalLoop=1;jettySize=auto;html=1;exitX=0;exitY=0.5;exitDx=0;exitDy=0;entryX=1;entryY=0.5;entryDx=0;entryDy=0;fontColor=#1A1A1A;" edge="1" parent="1" source="T_srFDjAMhjE24v10Dam-50" target="T_srFDjAMhjE24v10Dam-134">
          <mxGeometry relative="1" as="geometry">
            <Array as="points">
              <mxPoint x="110" y="961" />
              <mxPoint x="110" y="1051" />
            </Array>
          </mxGeometry>
        </mxCell>
        <mxCell id="T_srFDjAMhjE24v10Dam-179" style="edgeStyle=orthogonalEdgeStyle;rounded=0;orthogonalLoop=1;jettySize=auto;html=1;exitX=0;exitY=0.5;exitDx=0;exitDy=0;entryX=1;entryY=0.5;entryDx=0;entryDy=0;fontColor=#1A1A1A;" edge="1" parent="1" source="T_srFDjAMhjE24v10Dam-28" target="T_srFDjAMhjE24v10Dam-141">
          <mxGeometry relative="1" as="geometry" />
        </mxCell>
        <mxCell id="T_srFDjAMhjE24v10Dam-180" style="edgeStyle=orthogonalEdgeStyle;rounded=0;orthogonalLoop=1;jettySize=auto;html=1;exitX=0;exitY=0.5;exitDx=0;exitDy=0;entryX=1;entryY=0.5;entryDx=0;entryDy=0;fontColor=#1A1A1A;" edge="1" parent="1" source="T_srFDjAMhjE24v10Dam-30" target="T_srFDjAMhjE24v10Dam-143">
          <mxGeometry relative="1" as="geometry" />
        </mxCell>
        <mxCell id="T_srFDjAMhjE24v10Dam-182" style="edgeStyle=orthogonalEdgeStyle;rounded=0;orthogonalLoop=1;jettySize=auto;html=1;exitX=1;exitY=0.5;exitDx=0;exitDy=0;fontColor=#1A1A1A;" edge="1" parent="1" source="T_srFDjAMhjE24v10Dam-21" target="T_srFDjAMhjE24v10Dam-118">
          <mxGeometry relative="1" as="geometry">
            <Array as="points">
              <mxPoint x="500" y="391" />
              <mxPoint x="500" y="181" />
            </Array>
          </mxGeometry>
        </mxCell>
        <mxCell id="T_srFDjAMhjE24v10Dam-183" style="edgeStyle=orthogonalEdgeStyle;rounded=0;orthogonalLoop=1;jettySize=auto;html=1;exitX=1;exitY=0.5;exitDx=0;exitDy=0;fontColor=#1A1A1A;" edge="1" parent="1" source="T_srFDjAMhjE24v10Dam-20" target="T_srFDjAMhjE24v10Dam-116">
          <mxGeometry relative="1" as="geometry">
            <Array as="points">
              <mxPoint x="520" y="421" />
              <mxPoint x="520" y="361" />
            </Array>
          </mxGeometry>
        </mxCell>
        <mxCell id="T_srFDjAMhjE24v10Dam-184" style="edgeStyle=orthogonalEdgeStyle;rounded=0;orthogonalLoop=1;jettySize=auto;html=1;exitX=1;exitY=0.5;exitDx=0;exitDy=0;fontColor=#1A1A1A;" edge="1" parent="1" source="T_srFDjAMhjE24v10Dam-19" target="T_srFDjAMhjE24v10Dam-115">
          <mxGeometry relative="1" as="geometry">
            <Array as="points">
              <mxPoint x="540" y="451" />
              <mxPoint x="540" y="391" />
            </Array>
          </mxGeometry>
        </mxCell>
        <mxCell id="T_srFDjAMhjE24v10Dam-185" style="edgeStyle=orthogonalEdgeStyle;rounded=0;orthogonalLoop=1;jettySize=auto;html=1;exitX=1;exitY=0.5;exitDx=0;exitDy=0;fontColor=#1A1A1A;" edge="1" parent="1" source="T_srFDjAMhjE24v10Dam-9" target="T_srFDjAMhjE24v10Dam-112">
          <mxGeometry relative="1" as="geometry" />
        </mxCell>
      </root>
    </mxGraphModel>
  </diagram>
</mxfile>
